<?xml version="1.0" encoding="UTF-8"?>
<svg width="200px" height="200px" viewBox="0 0 200 200" version="1.1" xmlns="http://www.w3.org/2000/svg" xmlns:xlink="http://www.w3.org/1999/xlink">
    <!-- Generator: Sketch 52.2 (67145) - http://www.bohemiancoding.com/sketch -->
    <title>Artboard Copy 7</title>
    <desc>Created with Sketch.</desc>
    <g id="Artboard-Copy-7" stroke="none" stroke-width="1" fill="none" fill-rule="evenodd" stroke-linecap="round">
        <g id="Group-23-Copy" transform="translate(3.000000, 23.000000)" stroke="#000000" stroke-width="4">
            <g id="Group-5" transform="translate(119.000000, 0.000000)">
                <polyline id="Stroke-1" points="75.85092 77.0001613 37.92572 10.7950775 0.00012 77.0001613"></polyline>
                <polyline id="Stroke-3" points="31.96596 0.334002618 37.92556 10.7374686 43.88476 0.334002618"></polyline>
            </g>
            <polyline id="Stroke-6" points="139 77 101.0002 11 63 77"></polyline>
            <g id="Group-15">
                <polyline id="Stroke-7" points="94.2290571 0.333853042 100.256661 10.73266 106.28386 0.333853042"></polyline>
                <polyline id="Stroke-9" points="76.7164388 76.9656784 38.3584824 10.7902431 0.000121369295 76.9656784"></polyline>
                <polyline id="Stroke-11" points="32.3307168 0.333853042 38.3583205 10.73266 44.3855197 0.333853042"></polyline>
                <polyline id="Stroke-13" points="194.849219 153.931196 156.491262 87.7557604 118.132901 153.931196"></polyline>
            </g>
            <polyline id="Stroke-16" points="151 77 157.000201 88 163 77"></polyline>
            <polyline id="Stroke-17" points="139 154 101.0002 88 63 154"></polyline>
            <polyline id="Stroke-19" points="95 77 101.000201 88 107 77"></polyline>
            <polyline id="Stroke-20" points="76 154 38.0002004 88 0 154"></polyline>
            <polyline id="Stroke-22" points="32 77 38.0002014 88 44 77"></polyline>
        </g>
    </g>
</svg>