<?xml version="1.0" encoding="UTF-8"?>
<svg width="200px" height="200px" viewBox="0 0 200 200" version="1.1" xmlns="http://www.w3.org/2000/svg" xmlns:xlink="http://www.w3.org/1999/xlink">
    <!-- Generator: Sketch 52.2 (67145) - http://www.bohemiancoding.com/sketch -->
    <title>Artboard Copy</title>
    <desc>Created with Sketch.</desc>
    <g id="Artboard-Copy" stroke="none" stroke-width="1" fill="none" fill-rule="evenodd" stroke-linecap="round">
        <g id="Group-11-Copy" transform="translate(3.000000, 17.000000)" stroke="#000000" stroke-width="3">
            <path d="M31.4242309,96.020202 L0,96.020202 C13.6735288,136.350457 51.9203999,165.585859 97.0006726,165.585859 C142.0796,165.585859 180.326471,136.350457 194,96.020202 L161.904535,96.020202" id="Stroke-1"></path>
            <path d="M46.3119572,66.6262626 L14.6969697,66.6262626 C18.4445777,77.3149679 24.3768357,86.6675849 31.966044,96.020202 L162.033956,96.020202 C169.623164,86.6675849 175.555422,77.3149679 179.30303,66.6262626 L147.018012,66.6262626" id="Stroke-3"></path>
            <path d="M65.5557637,36.2525253 L27.4343434,36.2525253 C31.4224967,48.1379007 38.3096581,58.702679 47.2446811,66.6262626 L147.735117,66.6262626 C156.67014,58.702679 163.555957,48.1379007 167.545455,36.2525253 L128.753067,36.2525253" id="Stroke-5"></path>
            <path d="M83.0277414,15.6767677 L51.9292929,15.6767677 C54.6779034,23.9070707 59.5441412,30.7656566 65.8660798,36.2525253 L129.113718,36.2525253 C135.435657,30.7656566 140.30324,23.9070707 143.050505,15.6767677 L112.626092,15.6767677" id="Stroke-7"></path>
            <path d="M98.619087,15.6767677 L111.84419,15.6767677 C118.630334,12.1481886 123.882185,6.5973064 126.393939,0 L67.6060606,0 C70.11648,6.5973064 75.369666,12.1481886 82.1558102,15.6767677 L95.380913,15.6767677 L98.619087,15.6767677 Z" id="Stroke-9"></path>
        </g>
    </g>
</svg>