<?xml version="1.0" encoding="UTF-8"?>
<svg width="200px" height="200px" viewBox="0 0 200 200" version="1.1" xmlns="http://www.w3.org/2000/svg" xmlns:xlink="http://www.w3.org/1999/xlink">
    <!-- Generator: Sketch 52.2 (67145) - http://www.bohemiancoding.com/sketch -->
    <title>Artboard</title>
    <desc>Created with Sketch.</desc>
    <g id="Artboard" stroke="none" stroke-width="1" fill="none" fill-rule="evenodd" stroke-linecap="round">
        <g id="Group-11-Copy" transform="translate(3.000000, 15.000000)" stroke="#000000" stroke-width="3">
            <path d="M162.149575,102 C146.210911,119.334338 122.942533,131.156357 97,131.156357 C71.057467,131.156357 47.7877439,119.334338 31.850425,102 L0,102 C13.673434,142.002319 51.9213851,171 97,171 C142.078615,171 180.326566,142.002319 194,102 L162.149575,102 Z" id="Stroke-1"></path>
            <path d="M162.689597,102 C170.296968,92.4545455 176.243423,82.9090909 180,72 L147.79654,72 C134.596701,84.2727273 116.926927,92.0277273 97.500673,92.0277273 C78.0744194,92.0277273 60.4059907,84.2727273 47.2048063,72 L15,72 C18.7565769,82.9090909 24.7030321,92.4545455 32.311749,102 L162.689597,102 Z" id="Stroke-3"></path>
            <path d="M147.206526,72 C156.134549,63.9130435 163.014971,53.1304348 167,41 L128.581958,41 C120.138964,49.0869565 109.097505,52.9215217 97.0013436,52.9215217 C84.9038388,52.9215217 73.8610365,49.0869565 65.4193858,41 L27,41 C30.9850288,53.1304348 37.8667946,63.9130435 46.7948177,72 L147.206526,72 Z" id="Stroke-5"></path>
            <path d="M129.081752,41 C135.395281,35.6666667 140.256389,29 143,21 L99.1291027,21 C98.587636,21 98.0488565,21.0653333 97.5006718,21.0653333 C96.9524871,21.0653333 96.4137076,21 95.8708973,21 L52,21 C54.7449542,29 59.6047188,35.6666667 65.9182477,41 L129.081752,41 Z" id="Stroke-7"></path>
            <path d="M99.124929,21 C112.119001,19.6875 123.0077,11.8125 127,0 L68,0 C71.99364,11.8125 82.8809994,19.6875 95.875071,21 L99.124929,21 Z" id="Stroke-9"></path>
        </g>
    </g>
</svg>