<?xml version="1.0" encoding="UTF-8"?>
<svg width="200px" height="200px" viewBox="0 0 200 200" version="1.1" xmlns="http://www.w3.org/2000/svg" xmlns:xlink="http://www.w3.org/1999/xlink">
    <!-- Generator: Sketch 52.2 (67145) - http://www.bohemiancoding.com/sketch -->
    <title>Artboard Copy 4</title>
    <desc>Created with Sketch.</desc>
    <g id="Artboard-Copy-4" stroke="none" stroke-width="1" fill="none" fill-rule="evenodd">
        <g id="Group-11-Copy" transform="translate(5.000000, 5.000000)" stroke="#000000" stroke-width="4">
            <path d="M88.9657895,162.852632 L88.9657895,190.480225" id="Stroke-1" stroke-linecap="round"></path>
            <path d="M102.034211,162.852632 L102.034211,190.786377" id="Stroke-3" stroke-linecap="round"></path>
            <path d="M130.684211,6.78203277 C119.792468,2.42176671 107.929376,0 95.5006717,0 C83.0719671,0 71.2075318,2.42176671 60.3157895,6.78203277 L95.5006717,68.3578947 L130.684211,6.78203277 Z" id="Stroke-5"></path>
            <path d="M148.358595,16.0842105 L95.5,107.576499 L42.6427467,16.0842105 C16.9414273,33.1873023 0,62.3942443 0,95.5651771 C0,148.271773 42.7581497,191 95.5,191 C148.243192,191 191,148.271773 191,95.5651771 C191,62.3942443 174.058573,33.1873023 148.358595,16.0842105 Z" id="Stroke-9"></path>
        </g>
    </g>
</svg>